<svg xmlns="http://www.w3.org/2000/svg" id="Capa_1" enable-background="new 0 0 512 512" height="512" viewBox="0 0 512 512" width="512"><g><g><path d="m497 201h-22.785c-5.339-21.312-13.722-41.546-25.026-60.407l16.115-16.115c5.858-5.858 5.858-15.355 0-21.213l-56.569-56.569c-5.858-5.858-15.355-5.858-21.213 0l-16.115 16.115c-18.859-11.304-39.096-19.687-60.407-25.026v-22.785c0-8.284-6.716-15-15-15h-80c-8.284 0-15 6.716-15 15v22.785c-21.311 5.338-41.548 13.722-60.407 25.026l-16.115-16.115c-5.858-5.858-15.355-5.858-21.213 0l-56.568 56.569c-5.858 5.858-5.858 15.355 0 21.213l16.114 16.115c-11.304 18.86-19.687 39.094-25.026 60.407h-22.785c-8.284 0-15 6.716-15 15v80c0 8.284 6.716 15 15 15h22.785c5.339 21.313 13.722 41.547 25.026 60.407l-16.115 16.115c-5.858 5.858-5.858 15.355 0 21.213l56.569 56.568c5.858 5.858 15.355 5.858 21.213 0l16.115-16.115c18.86 11.303 39.097 19.687 60.407 25.025v22.787c0 8.284 6.716 15 15 15h80c8.284 0 15-6.716 15-15v-22.786c21.31-5.338 41.547-13.722 60.407-25.025l16.115 16.114c5.858 5.858 15.355 5.858 21.213 0l56.569-56.568c5.858-5.858 5.858-15.355 0-21.213l-16.115-16.115c11.304-18.861 19.687-39.095 25.025-60.407h22.786c8.284 0 15-6.716 15-15v-80c0-8.284-6.716-15-15-15z" fill="#e2dff4"/><path d="m497 201h-22.785c-5.339-21.312-13.722-41.546-25.026-60.407l16.115-16.115c5.858-5.858 5.858-15.355 0-21.213l-56.569-56.569c-5.858-5.858-15.355-5.858-21.213 0l-16.115 16.115c-18.859-11.304-39.096-19.687-60.407-25.026v-22.785c0-8.284-6.716-15-15-15h-40v512h40c8.284 0 15-6.716 15-15v-22.786c21.31-5.338 41.547-13.722 60.407-25.025l16.115 16.114c5.858 5.858 15.355 5.858 21.213 0l56.569-56.568c5.858-5.858 5.858-15.355 0-21.213l-16.115-16.115c11.304-18.861 19.687-39.095 25.025-60.407h22.786c8.284 0 15-6.716 15-15v-80c0-8.284-6.716-15-15-15z" fill="#bebcdd"/></g><circle cx="256" cy="256" fill="#fff5f5" r="155"/><path d="m256 101v310c85.468 0 155-69.533 155-155s-69.532-155-155-155z" fill="#e2dff4"/><circle cx="256" cy="256" fill="#e50058" r="125"/><path d="m256 131v250c68.925 0 125-56.075 125-125s-56.075-125-125-125z" fill="#b41061"/><path d="m346.606 275.394c-5.857-5.858-15.355-5.858-21.213 0l-4.393 4.393v-83.787c0-8.284-6.716-15-15-15s-15 6.716-15 15v83.787l-4.394-4.393c-5.857-5.858-15.355-5.858-21.213 0s-5.858 15.355 0 21.213l30 30c2.929 2.929 6.768 4.393 10.607 4.393s7.678-1.464 10.606-4.394l30-30c5.859-5.857 5.859-15.355 0-21.212z" fill="#e2dff4"/><path d="m246.606 215.394-30-30c-5.857-5.858-15.355-5.858-21.213 0l-30 30c-5.858 5.858-5.858 15.355 0 21.213 5.857 5.858 15.355 5.858 21.213 0l4.394-4.393v83.786c0 8.284 6.716 15 15 15s15-6.716 15-15v-83.787l4.394 4.393c2.928 2.93 6.767 4.394 10.606 4.394s7.678-1.464 10.606-4.394c5.858-5.857 5.858-15.355 0-21.212z" fill="#fff5f5"/></g></svg>
